<svg width="25" height="28" viewBox="0 0 25 28" fill="none" xmlns="http://www.w3.org/2000/svg">
<path d="M15.75 10.25H18.25V12.75H15.75V10.25ZM18.25 5.25H15.75V7.75H18.25V5.25ZM10.75 17.75H13.25V15.25H10.75V17.75ZM13.25 5.25H10.75V7.75H13.25V5.25ZM10.75 12.75H13.25V10.25H10.75V12.75ZM8.25 5.25H5.75V7.75H8.25V5.25ZM8.25 10.25H5.75V12.75H8.25V10.25ZM15.1875 25.25H13.25V20.875H10.75V25.25H3.25V2.75H20.75V12.7875C21.6375 12.8625 22.4875 13.1375 23.25 13.5375V0.25H0.75V27.75H16.8875C16.375 27.05 15.75 26.2 15.1875 25.25ZM5.75 22.75H8.25V20.25H5.75V22.75ZM8.25 15.25H5.75V17.75H8.25V15.25ZM24.5 19.625C24.5 22.875 20.125 27.75 20.125 27.75C20.125 27.75 15.75 22.875 15.75 19.625C15.75 17.25 17.75 15.25 20.125 15.25C22.5 15.25 24.5 17.25 24.5 19.625ZM21.625 19.75C21.625 19 20.875 18.25 20.125 18.25C19.375 18.25 18.625 18.875 18.625 19.75C18.625 20.5 19.25 21.25 20.125 21.25C21 21.25 21.75 20.5 21.625 19.75Z" fill="white"/>
</svg>
