<svg width="28" height="28" viewBox="0 0 28 28" fill="none" xmlns="http://www.w3.org/2000/svg">
<path d="M12.1925 6.80004L7.96374 1.91879C7.47624 1.35629 6.58249 1.35879 6.01624 1.92629L2.53874 5.41004C1.50374 6.44629 1.20749 7.98504 1.80624 9.21879C5.38326 16.625 11.3563 22.6064 18.7575 26.1938C19.99 26.7925 21.5275 26.4963 22.5625 25.46L26.0725 21.9438C26.6412 21.375 26.6425 20.4763 26.075 19.9888L21.175 15.7825C20.6625 15.3425 19.8662 15.4 19.3525 15.915L17.6475 17.6225C17.5602 17.714 17.4453 17.7743 17.3204 17.7942C17.1956 17.8141 17.0676 17.7924 16.9562 17.7325C14.1693 16.1277 11.8575 13.8128 10.2562 11.0238C10.1963 10.9122 10.1746 10.7841 10.1944 10.659C10.2143 10.5339 10.2747 10.4188 10.3662 10.3313L12.0662 8.63004C12.5812 8.11254 12.6375 7.31254 12.1925 6.79879V6.80004Z" stroke="white" stroke-width="2" stroke-linecap="round" stroke-linejoin="round"/>
</svg>
