<svg width="28" height="22" viewBox="0 0 28 22" fill="none" xmlns="http://www.w3.org/2000/svg">
<path d="M26.1875 0.6875H1.8125C1.29395 0.6875 0.875 1.10645 0.875 1.625V20.375C0.875 20.8936 1.29395 21.3125 1.8125 21.3125H26.1875C26.7061 21.3125 27.125 20.8936 27.125 20.375V1.625C27.125 1.10645 26.7061 0.6875 26.1875 0.6875ZM25.0156 3.93359V19.2031H2.98438V3.93359L2.17578 3.30371L3.32715 1.82422L4.58105 2.7998H23.4219L24.6758 1.82422L25.8271 3.30371L25.0156 3.93359ZM23.4219 2.79688L14 10.1211L4.57812 2.79688L3.32422 1.82129L2.17285 3.30078L2.98145 3.93066L12.9893 11.7119C13.2771 11.9355 13.6311 12.0569 13.9956 12.0569C14.3601 12.0569 14.7141 11.9355 15.002 11.7119L25.0156 3.93359L25.8242 3.30371L24.6729 1.82422L23.4219 2.79688Z" fill="white"/>
</svg>
