<svg width="40" height="40" viewBox="0 0 40 40" fill="none" xmlns="http://www.w3.org/2000/svg">
<path d="M20 21.6667C22.7614 21.6667 25 19.4281 25 16.6667C25 13.9053 22.7614 11.6667 20 11.6667C17.2386 11.6667 15 13.9053 15 16.6667C15 19.4281 17.2386 21.6667 20 21.6667Z" stroke="black" stroke-width="2" stroke-linecap="round" stroke-linejoin="round"/>
<path d="M20 3.33334C16.4637 3.33334 13.0724 4.7381 10.5719 7.23859C8.07138 9.73907 6.66663 13.1305 6.66663 16.6667C6.66663 19.82 7.33663 21.8833 9.16663 24.1667L20 36.6667L30.8333 24.1667C32.6633 21.8833 33.3333 19.82 33.3333 16.6667C33.3333 13.1305 31.9285 9.73907 29.428 7.23859C26.9276 4.7381 23.5362 3.33334 20 3.33334V3.33334Z" stroke="black" stroke-width="2" stroke-linecap="round" stroke-linejoin="round"/>
</svg>
