<svg width="163" height="30" viewBox="0 0 163 30" fill="none" xmlns="http://www.w3.org/2000/svg">
<path d="M15.3441 0L18.7177 10.3647H29.6348L20.8026 16.7705L24.1762 27.1353L15.3441 20.7295L6.51189 27.1353L9.88548 16.7705L1.05331 10.3647H11.9705L15.3441 0Z" fill="#FFA500"/>
<path d="M48.4016 0L51.7752 10.3647H62.6923L53.8601 16.7705L57.2337 27.1353L48.4016 20.7295L39.5694 27.1353L42.943 16.7705L34.1108 10.3647H45.028L48.4016 0Z" fill="#FFA500"/>
<path d="M81.4594 0L84.833 10.3647H95.7502L86.918 16.7705L90.2916 27.1353L81.4594 20.7295L72.6272 27.1353L76.0008 16.7705L67.1687 10.3647H78.0858L81.4594 0Z" fill="#FFA500"/>
<path d="M114.517 0L117.891 10.3647H128.808L119.976 16.7705L123.349 27.1353L114.517 20.7295L105.685 27.1353L109.058 16.7705L100.226 10.3647H111.143L114.517 0Z" fill="#FFA500"/>
<path d="M147.574 0L150.948 10.3647H161.865L153.033 16.7705L156.407 27.1353L147.574 20.7295L138.742 27.1353L142.116 16.7705L133.284 10.3647H144.201L147.574 0Z" fill="#FFA500"/>
</svg>
