<svg width="88" height="88" viewBox="0 0 88 88" fill="none" xmlns="http://www.w3.org/2000/svg">
<path d="M83.5 21.0833V52.3333H75.1666V25.25L54.3333 10.6667L33.5 25.25V31.5H25.1666V21.0833L54.3333 0.25L83.5 21.0833ZM60.5833 23.1667H56.4166V27.3333H60.5833V23.1667ZM52.25 23.1667H48.0833V27.3333H52.25V23.1667ZM60.5833 31.5H56.4166V35.6667H60.5833V31.5ZM52.25 31.5H48.0833V35.6667H52.25V31.5ZM75.1666 60.6667H66.8333C66.8333 55.6667 63.7083 51.1667 59.0416 49.4167L33.375 39.8333H0.166626V85.6667H25.1666V79.6667L54.3333 87.75L87.6666 77.3333V73.1667C87.6666 66.25 82.0833 60.6667 75.1666 60.6667ZM8.49996 77.3333V48.1667H16.8333V77.3333H8.49996ZM54.2083 79.0417L25.1666 71V48.1667H31.875L56.125 57.2083C57.5416 57.75 58.5 59.125 58.5 60.6667C58.5 60.6667 50.2083 60.4583 48.9166 60.0417L39 56.75L36.375 64.6667L46.2916 67.9583C48.4166 68.6667 50.625 69.0417 52.875 69.0417H75.1666C76.7916 69.0417 78.25 70 78.9166 71.375L54.2083 79.0417Z" fill="#316499"/>
</svg>
