<svg width="94" height="72" viewBox="0 0 94 72" fill="none" xmlns="http://www.w3.org/2000/svg">
<path d="M74.6953 11.4578C74.6531 11.8797 74.6281 12.3609 74.6172 12.8828L68.6266 15.7437C67.7875 15.6062 63.6266 15.8484 57.4203 12.7859C55.8469 12.0094 54.3094 11.5969 52.8328 11.5969C51.4966 11.5987 50.1799 11.9173 48.9906 12.5266C47.4234 12.1875 45.1656 11.3187 43.8453 11.3219C40.8578 11.3375 34.0656 13.7703 32.1844 13.9781C30.3438 14.1797 28.4484 14.6859 26.5406 15.4922C23.0734 14.4828 18.7266 12.8344 16.3984 11.9234L0.125 0.0625V38.2031L12.0844 43.8937C12.2578 43.6906 12.4562 43.3781 12.6719 42.9906L13.0422 43.1625C13.2234 43.6312 13.4234 44.0984 13.6422 44.5625C12.3297 46.7719 12.1734 49.2609 13.2219 51.425C14.1203 53.2766 15.7937 54.5766 17.6578 54.9406C17.7594 56.0938 18.1469 57.2094 18.8 58.1766C19.9719 59.9062 21.8344 60.9391 23.7859 60.9391C23.9625 60.9391 24.1391 60.9313 24.3141 60.9109C24.5922 61.6625 25 62.3625 25.5297 62.9687C26.7078 64.3234 28.3578 65.1 30.0547 65.1C30.1797 65.1 30.3016 65.0969 30.425 65.0875C30.6406 65.9062 31.0078 66.6813 31.5203 67.3719C32.7 68.9656 34.5203 69.9141 36.3922 69.9141C37.5547 69.9141 38.6656 69.5578 39.6453 68.8906C41.5391 70.1062 43.1859 70.9609 44.6469 71.4859C45.3797 71.7844 46.1422 71.9375 46.9203 71.9375C48.7609 71.9375 50.5469 71.0781 51.8219 69.575C52.2953 69.0156 52.6797 68.3906 52.9609 67.7219C53.5117 67.8885 54.0839 67.9738 54.6594 67.975C56.6156 67.975 58.4703 67.0172 59.7531 65.3422C60.3625 64.5484 60.8038 63.6387 61.05 62.6688C61.1844 62.6781 61.3172 62.6828 61.45 62.6828C63.7109 62.6828 65.875 61.3563 67.0922 59.2203C67.7303 58.1093 68.069 56.8516 68.075 55.5703C70.3094 55.2375 72.2766 53.6484 73.2344 51.3312C74.1781 49.0484 73.9219 46.5297 72.6047 44.4297L78.6906 41C78.8469 41.5344 79 42.0266 79.1484 42.4266L93.875 34.5906V2.62813L74.6953 11.4578ZM74.6937 16.2031C74.7906 17.8937 74.9672 19.8047 75.1953 21.8C73.9453 19.7 72.3672 18.7422 70.4078 18.2656L74.6937 16.2031ZM66.525 53.3219C63.1687 52.1672 56.1828 43.9547 56.1828 43.9547H56.3203C57.0312 43.9047 58.5672 43.1562 60.2906 43.5141C57.5844 41.1891 54.6078 43.1562 52.5812 41.9516C53.0516 43.4594 55.3125 43.9344 55.8922 43.9531L62.5859 51.7375C65.6172 55.2609 63.5062 59.6203 60.4672 60.3141C58.4281 59.3219 52.6703 52.4734 52.6703 52.4734C52.8672 52.4375 54.0344 52.0719 55.2234 52.2281C52.4781 50.175 49.3656 51.9563 47.5188 50.6672C48.5656 53.2531 52.0141 52.5906 52.375 52.5281L55.9562 57.1C58.8219 60.7563 56.5703 64.9797 53.5266 65.5516C50.8281 64.6031 49.0766 61.2281 49.0766 61.2281C49.3484 61.1844 50.2578 60.7797 51.5516 60.9672C49.25 58.95 46.5703 60.7797 44.9594 59.6313C45.9547 61.8 48.4359 61.3063 48.575 61.2906C51.0562 65.1984 48.4828 69.2734 45.4078 69.3953H45.4047L45.4016 69.3969C43.5547 69.0766 41.6203 67.6 39.4359 66.0844C40.1859 65.2531 40.8484 63.7922 40.8484 63.7922C43.0422 59.8203 40.1953 56.3078 37.2562 56.6094C39.6406 57.2609 41.4281 60.3047 39.5672 63.6844L38.75 65.0594C37.8625 66.6766 36.4766 67.6531 35.4578 67.5328C33.8891 67.3422 31.6781 65.0516 32.6078 61.8203C32.9672 61.4922 36.4328 56.1906 36.4328 56.1906C38.8156 52.3531 36.1406 48.6797 33.1937 48.8047C35.5406 49.5969 37.1859 52.7438 35.1625 56.0094L32.3453 60.4016C31.3844 61.9547 30.1406 62.8344 28.9547 62.6719C27.1141 62.4219 25.8234 60.1766 26.1187 57.8594C26.1031 57.8734 28.1469 55.5875 28.1469 55.5875C30.8625 52.0391 28.5375 48.0766 25.5953 47.8688C27.8563 48.9219 29.2031 52.2406 26.8953 55.2609L25.8984 56.4828C24.8047 57.9172 23.4875 58.6469 22.3344 58.3594C20.3219 57.8547 19.275 54.0891 20.2266 53.0625C20.975 52.2547 23.0766 49.6969 23.0766 49.6969C25.7906 46.1469 23.4688 42.1859 20.5234 41.975C22.7859 43.0313 24.1328 46.35 21.825 49.3719L20.8281 50.5906C19.7281 52.0375 18.4062 52.7641 17.2453 52.4688C14.8266 51.8563 13.6187 48.1219 15.9328 45.0906C15.9328 45.0906 15.1469 42.5937 14.7922 41.5266L13.6266 40.9859C16.3594 34.6188 20.4875 20.5656 20.6781 15.8969C22.6906 16.6141 28.0031 18.1422 28.5672 18.1453L28.5641 18.1484C34.2828 16.3516 40.2766 16.55 43.0109 15.4937C43.8969 15.1562 45.6594 15.1344 47.5281 16.2031C46.3609 17.2266 45.2578 18.4453 44.1125 19.5813C41.375 22.2984 31.1969 26.5359 33.1594 30.9922C34.8531 34.8375 39.6234 38.7719 47.625 32.5953L52.125 31.9766L59.1234 35.4297L68.0922 44.6406C71.2906 47.9187 69.4797 52.3687 66.525 53.3219ZM68.775 43.1734C67.7469 41.2516 64.5422 38.1 61.5172 35.5234L61.4984 35.5047C62.8937 35.5609 64.3578 33.3141 66.25 33.1406C64.9281 32.1312 62.7375 33.2969 62.0547 33.4813C58.2906 34.4938 52.4406 29.7578 52.4406 29.7578L46.8438 30.5641C46.8438 30.5641 40.1875 38.6875 34.5797 31.9953C31.5344 28.3609 42.5703 23.6141 45.2891 20.9125C48.7719 17.4516 51.875 13.2172 57.6047 16.1016C62.3641 18.5016 64.2391 18.3531 70.6234 19.4641C72.5266 19.7969 73.8453 20.6688 75.2594 22.3703C75.925 27.9703 77.0016 34.1813 78.0344 38.5031C77.5016 38.9516 72.9344 42.0234 68.775 43.1734Z" fill="#316499"/>
</svg>
